<?xml version="1.0" standalone="no"?>
<!DOCTYPE svg PUBLIC "-//W3C//DTD SVG 20010904//EN"
 "http://www.w3.org/TR/2001/REC-SVG-20010904/DTD/svg10.dtd">
<svg version="1.0" xmlns="http://www.w3.org/2000/svg"
 width="192.000000pt" height="192.000000pt" viewBox="0 0 192.000000 192.000000"
 preserveAspectRatio="xMidYMid meet">
<metadata>
Created by potrace 1.14, written by Peter Selinger 2001-2017
</metadata>
<g transform="translate(0.000000,192.000000) scale(0.100000,-0.100000)"
fill="#000000" stroke="none">
<path d="M931 1846 c-7 -8 -41 -77 -76 -153 l-64 -138 -57 -23 c-32 -13 -78
-37 -102 -54 l-45 -31 -46 18 c-117 46 -242 85 -252 79 -14 -8 -4 -65 37 -199
18 -60 30 -113 26 -117 -4 -4 -28 -9 -54 -12 -70 -8 -98 -17 -98 -30 0 -6 18
-38 40 -71 l40 -60 -54 -27 c-69 -35 -121 -95 -136 -159 -23 -95 11 -175 98
-233 51 -33 58 -42 70 -89 17 -70 54 -122 107 -156 25 -16 62 -46 83 -68 62
-64 203 -139 318 -168 96 -25 314 -26 404 -1 106 28 225 92 286 153 58 59 78
89 89 141 4 18 14 36 23 39 155 52 235 138 236 253 1 82 -53 176 -131 231 -34
24 -31 43 18 100 123 143 146 177 122 180 -5 0 -17 2 -28 4 -11 3 -76 7 -145
10 -107 5 -128 9 -146 26 -12 11 -20 28 -18 37 9 39 10 102 3 113 -6 10 -19 9
-64 -3 l-56 -16 -63 42 c-34 24 -91 53 -127 65 l-64 23 -45 105 c-50 118 -96
203 -109 203 -5 0 -14 -6 -20 -14z"/>
</g>
</svg>
